<svg xmlns="http://www.w3.org/2000/svg" width="512" height="512"><path d="M70.227 3.389C44.535 13.809 17.956 39.292 6.452 64.536-.533 79.863 0 64.013 0 256.506V430.65l2.487 7.312c5.502 16.175 14.907 30.231 30.184 45.112 11.994 11.682 20.087 17.496 32.977 23.691L75.5 511.5h361l9.852-4.735c5.418-2.604 12.843-6.847 16.5-9.428 9.128-6.445 24.23-21.244 31.245-30.62 5.597-7.48 14.903-24.494 14.903-27.247 0-.73.788-2.115 1.75-3.077 1.652-1.651 1.765-11.733 2.014-179.139.156-105.507-.103-177.162-.641-176.83-.497.307-1.185-.9-1.528-2.683-1.062-5.508-7.939-19.861-13.381-27.924-6.058-8.977-19.863-23.791-28.595-30.683-8.553-6.752-18.636-12.61-27.771-16.132L433.065 0 255.782.017 78.5.034l-8.273 3.355M.489 256.5c0 96.8.117 136.252.261 87.671.143-48.581.143-127.781 0-176C.606 119.952.489 159.7.489 256.5m176.344-136.473c-13.549 1.031-24.198 3.567-27.839 6.631-2.951 2.484-2.994 2.66-2.994 12.342 0 9.667.047 9.862 2.975 12.325 6.617 5.568 33.554 8.663 59.664 6.855 19.619-1.359 29.191-3.324 33.389-6.857C244.953 148.862 245 148.666 245 139c0-9.667-.047-9.862-2.975-12.325-6.892-5.8-36.573-8.826-65.192-6.648m4.867 48.606c-1.29 1.29-.829 175.205.476 179.56.647 2.159 2.487 5.029 4.09 6.377l2.914 2.452 40.66-.261 40.66-.261v-16l-34-.5-34-.5v-87l34-.5 34-.5v-14l-34-.5-34-.5-.5-34-.5-34-9.55-.284c-5.252-.156-9.864.032-10.25.417m131.3 56.35c-8.535.893-21.285 3.296-26.342 4.965-6.116 2.018-6.766 3.537-6.444 15.066.268 9.639.441 10.391 2.786 12.131 1.375 1.02 6.1 2.56 10.5 3.421 4.4.862 9.575 2.072 11.5 2.69 4.958 1.591 45.607 1.537 47.207-.063.656-.656 2.477-1.193 4.046-1.193 5.071 0 16.583-3.083 19.201-5.142 2.435-1.916 2.546-2.454 2.546-12.358s-.111-10.442-2.546-12.358c-2.618-2.059-14.13-5.142-19.201-5.142-1.569 0-3.28-.42-3.803-.932-1.289-1.266-30.138-2.059-39.45-1.085m-2 102.088c-12.55 1.046-23.906 3.478-27 5.782-2.81 2.093-3.853 6.273-3.942 15.793-.055 5.778.147 6.327 3.366 9.153 4.457 3.914 13.537 5.983 32.246 7.347 25.223 1.841 53.916-1.402 60.355-6.821 2.944-2.477 2.975-2.61 2.975-12.759 0-12.417-.427-12.988-11.724-15.686-14.2-3.392-36.132-4.487-56.276-2.809" fill="undefined" fill-rule="evenodd"/></svg>