<?xml version="1.0" standalone="no"?>
<!DOCTYPE svg PUBLIC "-//W3C//DTD SVG 20010904//EN"
 "http://www.w3.org/TR/2001/REC-SVG-20010904/DTD/svg10.dtd">
<svg version="1.0" xmlns="http://www.w3.org/2000/svg"
 width="48.000000pt" height="48.000000pt" viewBox="0 0 48.000000 48.000000"
 preserveAspectRatio="xMidYMid meet">

<g transform="translate(0.000000,48.000000) scale(0.100000,-0.100000)"
fill="#FFFFFF" stroke="none">
<path d="M125 375 c-33 -32 -33 -78 0 -110 49 -50 135 -15 135 55 0 41 -39 80
-80 80 -19 0 -40 -9 -55 -25z m85 -30 c15 -18 10 -45 -12 -59 -35 -22 -74 27
-48 59 16 19 44 19 60 0z"/>
<path d="M374 347 c-3 -10 -1 -24 6 -32 11 -13 7 -15 -29 -15 -34 0 -41 -3
-41 -20 0 -17 7 -20 42 -20 39 0 40 -1 24 -19 -13 -14 -14 -20 -4 -29 10 -8
24 -1 56 26 l43 37 -45 44 c-38 37 -46 42 -52 28z"/>
<path d="M97 206 c-57 -21 -77 -43 -77 -88 l0 -38 160 0 160 0 0 38 c0 26 -7
45 -19 56 -28 26 -89 45 -141 45 -25 0 -62 -6 -83 -13z m163 -40 c19 -7 36
-20 38 -29 3 -15 -10 -17 -118 -17 -108 0 -121 2 -118 17 4 21 61 41 118 41
25 0 61 -5 80 -12z"/>
</g>
</svg>
