<svg xmlns="http://www.w3.org/2000/svg" width="256" height="256"><path fill-opacity=".016" d="M0 128.004v128.004l128.25-.254 128.25-.254.254-127.75L257.008 0H0v128.004m.485.496c0 70.4.119 99.053.265 63.672.146-35.38.146-92.98 0-128C.604 29.153.485 58.1.485 128.5" fill="#1976D2" fill-rule="evenodd"/><path fill-opacity=".494" d="M31 3.768C22.333 8.474 8.534 22.411 4.532 30.5c-1.633 3.3-3.32 6.15-3.75 6.333C-.22 37.26-.251 219.722.75 220.167c.413.183 2.1 3.024 3.75 6.313 4.182 8.336 18.055 22.303 26.221 26.399L36.943 256h183.114l6.222-3.121c8.746-4.386 21.985-17.972 26.971-27.678l3.75-7.299v-91.01c0-50.055-.34-90.8-.755-90.543-.415.256-2.092-2.305-3.726-5.691-4.138-8.574-17.667-22.11-26.986-27.002L218.565 0l-90.532.119L37.5.238 31 3.768M.479 128.5c0 50.6.122 71.447.271 46.326.148-25.121.148-66.521 0-92C.601 57.347.479 77.9.479 128.5m81.117-67.066c-3.424.734-6.469 2.039-7.25 3.107-2.002 2.738-1.696 9.109.545 11.35 4.532 4.532 35.35 5.594 43.72 1.508 3.633-1.774 3.909-2.218 4.198-6.755.409-6.428-1.271-8.171-9.215-9.554-8.194-1.427-24.56-1.251-31.998.344m10.071 23.233c-.367.366-.667 20.421-.667 44.565 0 43.683.222 46.881 3.4 49.003 1.32.881 37.758 1.025 40.018.158 1.013-.388 1.582-1.828 1.582-4V171h-15.918c-8.755 0-16.63-.273-17.5-.607-1.372-.526-1.582-3.353-1.582-21.3 0-14.761.344-21.037 1.2-21.893.836-.836 6.17-1.2 17.563-1.2h16.364l-.314-3.25-.313-3.25-17-.5-17-.5.355-15.771c.257-11.444.018-16.177-.873-17.25-1.227-1.48-8.053-2.075-9.315-.812m56.51 29.737c-2.928.738-5.766 1.785-6.308 2.327-.541.541-.845 3.406-.676 6.368.38 6.659 1.611 7.406 14.631 8.881 9.972 1.13 25.439-.038 30.102-2.273 2.341-1.122 2.574-1.775 2.574-7.216v-5.982l-4-1.405c-5.637-1.98-29.432-2.439-36.323-.7m4.323 50.032c-.55.22-2.673.68-4.718 1.021-5.079.849-6.782 2.848-6.782 7.959 0 5.531 2.054 7.371 9.612 8.608 13.015 2.132 33.871.659 37.526-2.649 1.919-1.737 2.594-8.675 1.076-11.062-1.634-2.57-7.233-3.609-21.214-3.937-7.975-.188-14.95-.161-15.5.06" fill="#1976D2" fill-rule="evenodd"/><path fill-opacity=".527" d="M38.833.754c-.183.415-3.365 2.28-7.071 4.144C19.031 11.302 5.308 26.55 2.646 37.25 2.27 38.763 1.52 40 .981 40 .347 40 0 71.276 0 128.393c0 77.649.182 88.463 1.5 88.969.825.316 1.5 1.476 1.5 2.576 0 4.137 7.697 15.69 14.699 22.062 7.507 6.832 8.899 7.821 15.525 11.031l6.13 2.969h178.292l6.13-2.969c6.623-3.209 8.008-4.193 15.53-11.031 4.928-4.48 11.032-12.788 13.593-18.5.739-1.65 1.965-4.194 2.723-5.654 1.14-2.197 1.378-17.863 1.378-90.809 0-56.741-.346-87.941-.971-87.555-.534.33-1.283-.656-1.665-2.191-2.672-10.742-16.371-25.978-29.126-32.393-3.706-1.864-6.888-3.729-7.071-4.144-.436-.986-178.898-.986-179.334 0m75.414 17.29c-17.526 2.182-32.994 7.821-47.797 17.427-17.987 11.672-31.266 27.584-39.554 47.396-3.792 9.066-4.76 12.576-5.748 20.837-.587 4.906-.481 5.988.505 5.169.808-.671 12.127-.994 32.117-.916 16.978.065 31.625-.171 32.549-.526 1.103-.423 1.733-1.898 1.833-4.288.1-2.371.408-1.373.884 2.857.401 3.575.783 20.583.847 37.795L90 175.091l2.455 2.454c2.441 2.442 2.556 2.455 22.25 2.44 10.887-.009 20.389-.392 21.114-.852.827-.524 1.2-2.292 1-4.735l-.319-3.898-16.75-.274-16.75-.274-.001-21.226-.002-21.226 14.631.326c19.083.425 19.372.345 19.372-5.345V118h-34v-10.5c0-6.333.397-10.5 1-10.5.566 0 1 2.874 1 6.622 0 5.67.209 6.45 1.449 5.42 1.786-1.482 40.508-1.485 41.99-.003 1.269 1.269 5.561 1.238 5.561-.039 0-1.332 21.676-1.332 22.5 0 .792 1.282 5.228 1.306 5.667.031.462-1.344 46.123-1.482 48.617-.146 1.795.96 1.884.701 1.433-4.181-.599-6.479-5.302-21.155-9.3-29.024C208.368 47.05 180.563 26.252 148 19.644c-9.926-2.014-24.772-2.718-33.753-1.6M.479 128.5c0 48.95.122 68.829.271 44.175.149-24.654.149-64.704 0-89C.601 59.379.479 79.55.479 128.5M154.5 112.023c-13.156 1.452-15.5 3.036-15.5 10.477 0 8.764 5.193 10.892 26.468 10.844C186.407 133.297 191 131.346 191 122.5c0-5.792-1.178-7.342-7-9.208-4.742-1.52-20.921-2.216-29.5-1.269m-1.654 51.295C141.789 164.849 140 166.291 140 173.67c0 4.888.265 5.521 3.013 7.191 4.886 2.972 20.641 4.442 32.281 3.011 5.741-.705 10.929-1.938 12.705-3.017 2.734-1.663 3.001-2.302 3.001-7.185 0-3.913-.491-5.805-1.82-7.007-3.78-3.421-23.008-5.192-36.334-3.345" fill="#1976D2" fill-rule="evenodd"/><path fill-opacity=".351" d="M39.638 1.5c-.316.825-1.188 1.5-1.937 1.5-1.967 0-9.556 4.011-14.189 7.5-5.246 3.95-9.486 8.197-12.48 12.5-1.34 1.925-2.707 3.725-3.04 4C6.759 28.021 3 37.049 3 38.989 3 40.11 2.336 41 1.5 41 .178 41 0 51.389 0 128.5S.178 216 1.5 216c.928 0 1.5.941 1.5 2.47 0 5.989 11.181 21.362 20 27.498 1.925 1.34 3.725 2.688 4 2.997.275.309 2.75 1.618 5.5 2.908 2.75 1.29 5.781 2.747 6.736 3.236 2.285 1.172 176.243 1.172 178.528 0 .955-.489 3.986-1.946 6.736-3.236 2.75-1.29 5.225-2.599 5.5-2.908.275-.309 2.075-1.657 4-2.997 6.88-4.787 15.1-14.994 18.899-23.468.739-1.65 1.965-4.194 2.723-5.654 1.14-2.196 1.378-17.699 1.378-89.719 0-76.98-.174-86.998-1.5-86.489-1.042.4-1.5-.07-1.5-1.542 0-2.021-3.725-11.047-4.992-12.096-.333-.275-1.7-2.075-3.04-4-2.994-4.303-7.234-8.55-12.48-12.5-4.633-3.489-12.222-7.5-14.189-7.5-.749 0-1.621-.675-1.937-1.5-.874-2.277-176.85-2.277-177.724 0M114 17.1c-17.411 1.95-34.208 8.281-49.817 18.777C42.224 50.643 26.217 73.917 19.39 101c-2.394 9.5-2.897 31.15-.96 41.374 4.285 22.621 12.98 41.064 26.417 56.035 4.319 4.813 10.962 9.71 11.653 8.591.963-1.558 139.213-1.361 139.733.199.92 2.761 13.356-9.263 21.408-20.699 3.736-5.308 10.12-18.775 12.755-26.908 4.609-14.226 5.967-24.469 5.246-39.562-1.061-22.221-6.09-37.363-18.576-55.932-17.634-26.225-45.941-43.085-79.04-47.076-9.499-1.146-13.213-1.134-24.026.078M.479 128.5C.478 176.9.6 196.846.75 172.825c.149-24.021.149-63.621 0-88C.601 60.446.479 80.1.479 128.5M103 156.5c0 7.667.387 12.5 1 12.5s1-4.833 1-12.5-.387-12.5-1-12.5-1 4.833-1 12.5m-14.817 5.628c-.158 11.735.052 13.818 1.509 15 1.461 1.185 1.563 1.167.75-.128-.518-.825-1.197-7.575-1.509-15l-.566-13.5-.184 13.628M153.5 161c-.4.646 3.843 1 12 1s12.4-.354 12-1c-.353-.572-5.491-1-12-1s-11.647.428-12 1m-9.5 2c0 1.264 2.043 1.264 4 0 1.169-.755.893-.973-1.25-.985-1.512-.008-2.75.435-2.75.985m39 0c1.957 1.264 4 1.264 4 0 0-.55-1.238-.993-2.75-.985-2.143.012-2.419.23-1.25.985m-42.5 2c-.34.55-.141 1 .441 1s1.059-.45 1.059-1-.198-1-.441-1-.719.45-1.059 1m-2.172 8.5c.005 3.85.185 5.302.402 3.228.216-2.075.213-5.225-.008-7-.221-1.776-.398-.078-.394 3.772m54 0c.005 3.85.185 5.302.402 3.228.216-2.075.213-5.225-.008-7-.221-1.776-.398-.078-.394 3.772M95 182c0 .633 7.333 1 20 1s20-.367 20-1-7.333-1-20-1-20 .367-20 1m45.5 0c.34.55 1.068 1 1.618 1s.722-.45.382-1c-.34-.55-1.068-1-1.618-1s-.722.45-.382 1m48 0c-.34.55-.141 1 .441 1s1.059-.45 1.059-1-.198-1-.441-1-.719.45-1.059 1m-44.5 1.889c0 .627 1.717 1.111 3.941 1.111 2.168 0 4.219.45 4.559 1 .358.58 5.824 1 13 1s12.642-.42 13-1c.34-.55 2.391-1 4.559-1 2.224 0 3.941-.484 3.941-1.111 0-.771-1.15-.848-3.75-.25-2.062.473-10.05.861-17.75.861-7.7 0-15.687-.388-17.75-.861-2.6-.598-3.75-.521-3.75.25" fill="#1976D2" fill-rule="evenodd"/></svg>